<svg width="773" height="558" viewBox="0 0 773 558" fill="none" xmlns="http://www.w3.org/2000/svg">
<path d="M122 445V380.2H11.2V321L117.6 169.8H207.2V321.8H245.6V380.2H207.2V445H122ZM70 321.8H122V237.8L70 321.8ZM386.391 448.2C362.124 448.2 340.524 442.2 321.591 430.2C302.657 417.933 287.724 401.133 276.791 379.8C266.124 358.2 260.791 333.533 260.791 305.8C260.791 278.333 266.124 253.933 276.791 232.6C287.724 211.267 302.657 194.467 321.591 182.2C340.524 169.933 362.124 163.8 386.391 163.8C404.524 163.8 421.191 167.4 436.391 174.6C451.591 181.533 464.791 191.4 475.991 204.2C487.191 216.733 495.857 231.667 501.991 249C508.391 266.333 511.591 285.267 511.591 305.8C511.591 333.267 506.124 357.8 495.191 379.4C484.524 400.733 469.724 417.533 450.791 429.8C432.124 442.067 410.657 448.2 386.391 448.2ZM386.391 379.8C399.724 379.8 410.124 373.267 417.591 360.2C425.324 347.133 429.191 329 429.191 305.8C429.191 283.133 425.324 265.267 417.591 252.2C410.124 238.867 399.724 232.2 386.391 232.2C372.791 232.2 362.124 238.733 354.391 251.8C346.924 264.867 343.191 282.867 343.191 305.8C343.191 328.467 347.057 346.467 354.791 359.8C362.791 373.133 373.324 379.8 386.391 379.8ZM643.875 445V380.2H533.075V321L639.475 169.8H729.075V321.8H767.475V380.2H729.075V445H643.875ZM591.875 321.8H643.875V237.8L591.875 321.8Z" fill="#0607B1"/>
<ellipse cx="386.5" cy="307" rx="51.5" ry="87" fill="#0607B1"/>
<path fill-rule="evenodd" clip-rule="evenodd" d="M445 284.33C449.921 279.765 453 273.242 453 266C453 252.193 441.807 241 428 241C414.193 241 403 252.193 403 266C403 273.604 406.395 280.415 411.751 285C411.751 285 415.5 284 418.5 283.5C421.5 283 425 282.5 428 282.5C431 282.5 433 282.5 437 283C441 283.5 445 284.33 445 284.33Z" fill="white"/>
<path fill-rule="evenodd" clip-rule="evenodd" d="M331 284.33C326.079 279.765 323 273.242 323 266C323 252.193 334.193 241 348 241C361.807 241 373 252.193 373 266C373 273.604 369.605 280.415 364.249 285C364.249 285 360.5 284 357.5 283.5C354.5 283 351 282.5 348 282.5C345 282.5 343 282.5 339 283C335 283.5 331 284.33 331 284.33Z" fill="white"/>
<ellipse cx="423" cy="267" rx="10" ry="9" fill="black"/>
<ellipse cx="352" cy="267" rx="10" ry="9" fill="black"/>
<path d="M430 358.475C430 364.141 430 367.26 427.181 368.968C424.774 370.427 420.312 370.858 412.039 370.967H430V358.475Z" fill="#07076A"/>
<path fill-rule="evenodd" clip-rule="evenodd" d="M427.181 368.968C430 367.26 430 364.141 430 358.475C430 344.677 406.839 321 389.279 321C371.719 321 348 344.677 348 358.475L389.279 370.967H366.207C371.918 371.041 379.422 370.967 389.279 370.967C392.801 370.967 396.018 370.977 398.957 370.986C404.133 371.001 408.446 371.014 412.039 370.967C420.312 370.858 424.774 370.427 427.181 368.968Z" fill="#07076A"/>
<path d="M348 370.967H366.207C348 370.729 348 368.978 348 358.475V370.967Z" fill="#07076A"/>
<path d="M389.279 370.967L348 358.475C348 368.978 348 370.729 366.207 370.967H389.279Z" fill="#07076A"/>
<path d="M412.591 359.567C412.591 361.582 415 362.448 413.178 363.055C411.622 363.574 408.738 363.727 403.391 363.766L415 364L412.591 359.567Z" fill="#F29B94"/>
<path fill-rule="evenodd" clip-rule="evenodd" d="M413.178 363.055C415 362.448 412.591 361.582 412.591 359.567C411.041 357.11 412.144 358.6 407.389 353.2C402.633 347.8 396.984 346.655 388.68 346C380.184 346.533 377.775 346.27 368.5 353.5C366.851 355.186 365.048 357.321 363.721 359.801L388.68 363.766H373.768C377.459 363.793 382.309 363.766 388.68 363.766C390.956 363.766 393.036 363.77 394.935 363.773C398.281 363.778 401.068 363.783 403.391 363.766C408.738 363.727 411.622 363.574 413.178 363.055Z" fill="#F29B94"/>
<path d="M362 364L373.768 363.766C362 363.682 363.721 363.536 363.721 359.801L362 364Z" fill="#F29B94"/>
<path d="M388.68 363.766L363.721 359.801C363.721 363.536 362 363.682 373.768 363.766H388.68Z" fill="#F29B94"/>
<path d="M345.927 226.741C355.335 226.368 364.578 229.462 371.849 235.441L372.545 236.028C379.527 242.054 384.057 250.386 385.278 259.461L385.336 259.455L385.346 259.978L385.404 260.453L385.356 260.458L385.486 267.301L385.497 267.326L385.487 267.446C384.722 276.739 380.48 285.388 373.608 291.719L372.935 292.324C365.667 298.703 356.183 302.066 346.444 301.72C337.01 301.385 328.035 297.594 321.257 291.104L320.608 290.467C313.974 283.803 310.084 274.957 309.68 265.659L309.652 264.758C309.468 255.132 313.037 245.821 319.621 238.754C326.204 231.687 335.296 227.404 345.016 226.788L345.927 226.741ZM367.619 240.485C361.423 235.39 353.493 232.832 345.467 233.341C337.694 233.834 330.409 237.168 325.024 242.675L324.509 243.215C319.079 249.045 316.136 256.722 316.288 264.66C316.439 272.598 319.675 280.192 325.327 285.869L325.863 286.394C331.457 291.751 338.867 294.881 346.656 295.157C354.696 295.443 362.524 292.666 368.519 287.404L369.074 286.904C374.738 281.686 378.233 274.561 378.869 266.907L378.75 260.684C377.791 252.805 373.808 245.574 367.619 240.485Z" fill="black" stroke="black"/>
<path d="M426.696 302.661C417.284 302.404 408.269 298.7 401.414 292.248L400.759 291.616C394.194 285.137 390.232 276.52 389.621 267.384L389.562 267.386L389.586 266.864L389.561 266.386L389.609 266.384L389.936 259.548L389.928 259.522L389.945 259.403C391.33 250.182 396.141 241.836 403.42 235.979L404.132 235.42C411.81 229.541 421.498 226.819 431.191 227.815C440.582 228.78 449.284 233.162 455.613 240.091L456.217 240.77C462.392 247.863 465.681 256.948 465.463 266.253L465.431 267.154C464.971 276.771 460.787 285.822 453.747 292.433C446.706 299.044 437.347 302.71 427.608 302.675L426.696 302.661ZM405.971 287.498C411.812 292.995 419.555 296.078 427.596 296.107C435.385 296.134 442.876 293.295 448.617 288.16L449.167 287.655C454.975 282.202 458.425 274.738 458.804 266.808C459.183 258.878 456.462 251.085 451.202 245.043L450.703 244.482C445.479 238.764 438.295 235.146 430.542 234.349C422.539 233.527 414.543 235.774 408.209 240.624L407.622 241.086C401.622 245.913 397.658 252.789 396.512 260.383L396.215 266.601C396.645 274.525 400.136 282.006 405.971 287.498Z" fill="black" stroke="black"/>
<rect x="382" y="261.999" width="14" height="7" fill="black"/>
<rect x="272.469" y="241.146" width="42.5301" height="7" transform="rotate(18.4698 272.469 241.146)" fill="black"/>
<rect width="40.9934" height="7" transform="matrix(-0.905538 0.424265 0.424265 0.905538 498.508 240.604)" fill="black"/>
<circle cx="420.5" cy="267.5" r="2.5" fill="white"/>
<circle cx="354.5" cy="267.5" r="2.5" fill="white"/>
</svg>
