<svg width="45" height="45" viewBox="0 0 45 45" fill="none" xmlns="http://www.w3.org/2000/svg">
<path d="M22.2385 42.0942C33.2045 42.0942 42.0942 33.2045 42.0942 22.2385C42.0942 11.2725 33.2045 2.38281 22.2385 2.38281C11.2725 2.38281 2.38281 11.2725 2.38281 22.2385C2.38281 33.2045 11.2725 42.0942 22.2385 42.0942Z" fill="white" stroke="#020202" stroke-width="3.17691" stroke-linecap="round" stroke-linejoin="round"/>
<path d="M22.2382 24.0809C26.075 24.0809 29.1854 20.9705 29.1854 17.1337C29.1854 13.2969 26.075 10.1865 22.2382 10.1865C18.4014 10.1865 15.291 13.2969 15.291 17.1337C15.291 20.9705 18.4014 24.0809 22.2382 24.0809Z" fill="white" stroke="#020202" stroke-width="3.17691" stroke-linecap="round" stroke-linejoin="round"/>
<path d="M34.0071 38.2325C30.7137 40.6597 26.6438 42.094 22.2389 42.094C17.8339 42.094 13.764 40.6597 10.4707 38.2325C11.1265 35.7624 12.5452 33.5551 14.5332 31.9301C16.7079 30.1526 19.4302 29.1816 22.2389 29.1816C25.0475 29.1816 27.7699 30.1526 29.9445 31.9301C31.9326 33.5551 33.3511 35.7624 34.0071 38.2325Z" fill="white" stroke="#020202" stroke-width="3.17691" stroke-linecap="round" stroke-linejoin="round"/>
</svg>
