<svg width="51" height="50" viewBox="0 0 51 50" fill="none" xmlns="http://www.w3.org/2000/svg">
<circle cx="25.0684" cy="25" r="25" fill="#414288"/>
<path d="M25.3184 25C26.8017 25 28.2518 24.5601 29.4851 23.736C30.7185 22.9119 31.6798 21.7406 32.2475 20.3701C32.8151 18.9997 32.9636 17.4917 32.6743 16.0368C32.3849 14.582 31.6706 13.2456 30.6217 12.1967C29.5728 11.1478 28.2364 10.4335 26.7815 10.1441C25.3267 9.85472 23.8187 10.0032 22.4482 10.5709C21.0778 11.1386 19.9064 12.0999 19.0823 13.3332C18.2582 14.5666 17.8184 16.0166 17.8184 17.5C17.8203 19.4885 18.6112 21.395 20.0173 22.8011C21.4233 24.2072 23.3298 24.998 25.3184 25ZM25.3184 12.5C26.3073 12.5 27.274 12.7932 28.0962 13.3427C28.9185 13.8921 29.5593 14.673 29.9378 15.5866C30.3162 16.5002 30.4152 17.5056 30.2223 18.4755C30.0294 19.4454 29.5532 20.3363 28.8539 21.0355C28.1546 21.7348 27.2637 22.211 26.2938 22.4039C25.3239 22.5969 24.3186 22.4978 23.4049 22.1194C22.4913 21.741 21.7104 21.1001 21.161 20.2779C20.6116 19.4556 20.3184 18.4889 20.3184 17.5C20.3184 16.1739 20.8451 14.9022 21.7828 13.9645C22.7205 13.0268 23.9923 12.5 25.3184 12.5Z" fill="#F9F9F9"/>
<path d="M25.3184 27.5C22.3357 27.5033 19.4761 28.6896 17.3671 30.7987C15.258 32.9078 14.0717 35.7673 14.0684 38.75C14.0684 39.0815 14.2001 39.3995 14.4345 39.6339C14.6689 39.8683 14.9868 40 15.3184 40C15.6499 40 15.9678 39.8683 16.2022 39.6339C16.4367 39.3995 16.5684 39.0815 16.5684 38.75C16.5684 36.4294 17.4902 34.2038 19.1312 32.5628C20.7721 30.9219 22.9977 30 25.3184 30C27.639 30 29.8646 30.9219 31.5055 32.5628C33.1465 34.2038 34.0684 36.4294 34.0684 38.75C34.0684 39.0815 34.2001 39.3995 34.4345 39.6339C34.6689 39.8683 34.9868 40 35.3184 40C35.6499 40 35.9678 39.8683 36.2022 39.6339C36.4367 39.3995 36.5684 39.0815 36.5684 38.75C36.5651 35.7673 35.3787 32.9078 33.2697 30.7987C31.1606 28.6896 28.301 27.5033 25.3184 27.5Z" fill="#F9F9F9"/>
</svg>
