<svg width="51" height="50" viewBox="0 0 51 50" fill="none" xmlns="http://www.w3.org/2000/svg">
<path fill-rule="evenodd" clip-rule="evenodd" d="M40.2694 5.05583C44.6002 8.30488 47.8466 12.9096 49.3713 18.2345L49.5268 18.7785L42.6113 15.7404L42.5678 15.6607C40.8501 12.5277 38.3059 9.90601 35.2269 8.08673C32.2534 6.32951 28.7794 5.32029 25.0681 5.32029C21.3566 5.32029 17.8825 6.32951 14.909 8.08696C11.8303 9.90624 9.28587 12.5279 7.56841 15.661L7.52441 15.7406C5.22095 16.7566 2.91446 17.7663 0.609375 18.7785L0.765126 18.2345C2.29006 12.9091 5.53641 8.30488 9.86698 5.05583C14.097 1.88181 19.3621 0 25.0681 0C30.7741 0 36.0392 1.88204 40.2694 5.05583Z" fill="#414288"/>
<path fill-rule="evenodd" clip-rule="evenodd" d="M25.0684 49.9998C38.8754 49.9998 50.0684 38.8664 50.0684 25.1324C50.0684 23.9106 49.9783 22.7098 49.8069 21.535L44.3372 19.1319L27.4151 11.6978C26.6771 11.3736 25.8746 11.208 25.0684 11.208C24.2328 11.208 23.4387 11.3835 22.7207 11.699L5.79953 19.1324L0.329809 21.535C0.158458 22.7096 0.0683594 23.9106 0.0683594 25.1324C0.0683594 38.8664 11.2611 49.9998 25.0684 49.9998ZM36.9067 33.5322C36.9067 37.2578 31.6065 40.2779 25.0684 40.2779C18.5303 40.2779 13.23 37.2578 13.23 33.5322V28.8726L22.7207 33.0417C23.4387 33.3569 24.2328 33.5324 25.0684 33.5324C25.8746 33.5324 26.6771 33.3671 27.4151 33.0426L36.9067 28.8728V33.5322ZM45.146 23.0421C45.2177 23.7292 45.2542 24.4265 45.2542 25.1324C45.2542 36.2218 36.2166 45.2112 25.0684 45.2112C13.9198 45.2112 4.88248 36.2218 4.88248 25.1324C4.88248 24.4265 4.91903 23.7292 4.99074 23.0419L22.7207 30.8304C23.4387 31.1458 24.2328 31.3213 25.0684 31.3213C25.8746 31.3213 26.6771 31.156 27.4151 30.8315L36.5351 26.825L25.9649 21.3917V21.3915C25.5184 21.2004 25.2055 20.7595 25.2055 20.2451C25.2055 19.5567 25.7668 18.9983 26.459 18.9983C26.6988 18.9983 26.9227 19.0652 27.1134 19.1815L39.4725 25.5346L45.146 23.0421Z" fill="#414288"/>
</svg>
