<svg width="70" height="70" viewBox="0 0 70 70" fill="none" xmlns="http://www.w3.org/2000/svg">
<rect width="70" height="70" fill="#21284E"/>
<g clip-path="url(#clip0_101_863)">
<path d="M35 35C36.4834 35 37.9334 34.5601 39.1668 33.736C40.4001 32.9119 41.3614 31.7406 41.9291 30.3701C42.4968 28.9997 42.6453 27.4917 42.3559 26.0368C42.0665 24.582 41.3522 23.2456 40.3033 22.1967C39.2544 21.1478 37.918 20.4335 36.4632 20.1441C35.0083 19.8547 33.5003 20.0032 32.1299 20.5709C30.7594 21.1386 29.5881 22.0999 28.764 23.3332C27.9399 24.5666 27.5 26.0166 27.5 27.5C27.502 29.4885 28.2928 31.395 29.6989 32.8011C31.105 34.2072 33.0115 34.998 35 35ZM35 22.5C35.9889 22.5 36.9556 22.7932 37.7779 23.3427C38.6001 23.8921 39.241 24.673 39.6194 25.5866C39.9978 26.5002 40.0969 27.5056 39.9039 28.4755C39.711 29.4454 39.2348 30.3363 38.5355 31.0355C37.8363 31.7348 36.9454 32.211 35.9755 32.4039C35.0055 32.5969 34.0002 32.4978 33.0866 32.1194C32.173 31.741 31.3921 31.1001 30.8427 30.2779C30.2932 29.4556 30 28.4889 30 27.5C30 26.1739 30.5268 24.9022 31.4645 23.9645C32.4021 23.0268 33.6739 22.5 35 22.5Z" fill="#F9F9F9"/>
<path d="M35 37.5C32.0173 37.5033 29.1578 38.6896 27.0487 40.7987C24.9396 42.9078 23.7533 45.7673 23.75 48.75C23.75 49.0815 23.8817 49.3995 24.1161 49.6339C24.3505 49.8683 24.6685 50 25 50C25.3315 50 25.6495 49.8683 25.8839 49.6339C26.1183 49.3995 26.25 49.0815 26.25 48.75C26.25 46.4294 27.1719 44.2038 28.8128 42.5628C30.4538 40.9219 32.6794 40 35 40C37.3206 40 39.5462 40.9219 41.1872 42.5628C42.8281 44.2038 43.75 46.4294 43.75 48.75C43.75 49.0815 43.8817 49.3995 44.1161 49.6339C44.3505 49.8683 44.6685 50 45 50C45.3315 50 45.6495 49.8683 45.8839 49.6339C46.1183 49.3995 46.25 49.0815 46.25 48.75C46.2467 45.7673 45.0604 42.9078 42.9513 40.7987C40.8422 38.6896 37.9827 37.5033 35 37.5Z" fill="#F9F9F9"/>
</g>
<defs>
<clipPath id="clip0_101_863">
<rect width="30" height="30" fill="white" transform="translate(20 20)"/>
</clipPath>
</defs>
</svg>
