<svg width="70" height="60" viewBox="0 0 70 60" fill="none" xmlns="http://www.w3.org/2000/svg">
<g clip-path="url(#clip0_101_823)">
<path d="M48.75 42.5H23.75C23.4185 42.5 23.1005 42.3683 22.8661 42.1339C22.6317 41.8995 22.5 41.5815 22.5 41.25V16.25C22.5 15.9185 22.3683 15.6005 22.1339 15.3661C21.8995 15.1317 21.5815 15 21.25 15C20.9185 15 20.6005 15.1317 20.3661 15.3661C20.1317 15.6005 20 15.9185 20 16.25V41.25C20 42.2446 20.3951 43.1984 21.0983 43.9017C21.8016 44.6049 22.7554 45 23.75 45H48.75C49.0815 45 49.3995 44.8683 49.6339 44.6339C49.8683 44.3995 50 44.0815 50 43.75C50 43.4185 49.8683 43.1005 49.6339 42.8661C49.3995 42.6317 49.0815 42.5 48.75 42.5Z" fill="#FDFCFA"/>
<path d="M38.75 40C39.0815 40 39.3995 39.8683 39.6339 39.6339C39.8683 39.3995 40 39.0815 40 38.75V30C40 29.6685 39.8683 29.3505 39.6339 29.1161C39.3995 28.8817 39.0815 28.75 38.75 28.75C38.4185 28.75 38.1005 28.8817 37.8661 29.1161C37.6317 29.3505 37.5 29.6685 37.5 30V38.75C37.5 39.0815 37.6317 39.3995 37.8661 39.6339C38.1005 39.8683 38.4185 40 38.75 40Z" fill="#FDFCFA"/>
<path d="M28.75 40C29.0815 40 29.3995 39.8683 29.6339 39.6339C29.8683 39.3995 30 39.0815 30 38.75V30C30 29.6685 29.8683 29.3505 29.6339 29.1161C29.3995 28.8817 29.0815 28.75 28.75 28.75C28.4185 28.75 28.1005 28.8817 27.8661 29.1161C27.6317 29.3505 27.5 29.6685 27.5 30V38.75C27.5 39.0815 27.6317 39.3995 27.8661 39.6339C28.1005 39.8683 28.4185 40 28.75 40Z" fill="#FDFCFA"/>
<path d="M43.75 40C44.0815 40 44.3995 39.8683 44.6339 39.6339C44.8683 39.3995 45 39.0815 45 38.75V23.75C45 23.4185 44.8683 23.1005 44.6339 22.8661C44.3995 22.6317 44.0815 22.5 43.75 22.5C43.4185 22.5 43.1005 22.6317 42.8661 22.8661C42.6317 23.1005 42.5 23.4185 42.5 23.75V38.75C42.5 39.0815 42.6317 39.3995 42.8661 39.6339C43.1005 39.8683 43.4185 40 43.75 40Z" fill="#FDFCFA"/>
<path d="M33.75 40C34.0815 40 34.3995 39.8683 34.6339 39.6339C34.8683 39.3995 35 39.0815 35 38.75V23.75C35 23.4185 34.8683 23.1005 34.6339 22.8661C34.3995 22.6317 34.0815 22.5 33.75 22.5C33.4185 22.5 33.1005 22.6317 32.8661 22.8661C32.6317 23.1005 32.5 23.4185 32.5 23.75V38.75C32.5 39.0815 32.6317 39.3995 32.8661 39.6339C33.1005 39.8683 33.4185 40 33.75 40Z" fill="#FDFCFA"/>
</g>
<defs>
<clipPath id="clip0_101_823">
<rect width="30" height="30" fill="white" transform="translate(20 15)"/>
</clipPath>
</defs>
</svg>
