<svg width="24" height="24" viewBox="0 0 24 24" fill="none" xmlns="http://www.w3.org/2000/svg">
<path fill-rule="evenodd" clip-rule="evenodd" d="M16.1904 0.914562L23.0154 7.73956C24.2625 8.99204 24.2625 11.0171 23.0154 12.2696L18.8304 16.4546C18.5925 16.6999 18.3905 16.9777 18.2304 17.2796L15.9204 21.9146C15.4555 22.8346 14.5789 23.4771 13.5615 23.6432C12.5441 23.8093 11.5087 23.479 10.7754 22.7546L6.77035 18.7496L1.92535 23.5946C1.71553 23.807 1.42895 23.926 1.13035 23.9246C0.830727 23.9313 0.542117 23.8115 0.335355 23.5946C0.120933 23.3856 0 23.0989 0 22.7996C0 22.5002 0.120933 22.2135 0.335355 22.0046L5.18035 17.1596L1.17535 13.1546C0.444422 12.4241 0.109802 11.3865 0.276304 10.3667C0.442806 9.34688 1.09007 8.46957 2.01535 8.00956L6.65035 5.69956C6.95223 5.53939 7.22997 5.3374 7.47536 5.09956L11.6904 0.914562C12.9425 -0.304854 14.9382 -0.304854 16.1904 0.914562ZM17.1354 14.7446L21.3054 10.5746C21.6308 10.2714 21.6509 9.76246 21.3504 9.43456L14.5404 2.62456C14.3907 2.47061 14.1851 2.38375 13.9704 2.38375C13.7556 2.38375 13.55 2.47061 13.4004 2.62456L9.23035 6.79456C8.79211 7.22541 8.28518 7.58026 7.73035 7.84456L3.09535 10.1696C2.86079 10.2785 2.69714 10.4986 2.66035 10.7546C2.61167 11.008 2.69665 11.2686 2.88535 11.4446L12.4854 21.0446C12.6274 21.2005 12.8295 21.2879 13.0404 21.2846C13.3481 21.2898 13.6302 21.1135 13.7604 20.8346L16.0854 16.2446C16.3497 15.6897 16.7045 15.1828 17.1354 14.7446Z" fill="#FFBD53"/>
</svg>
