<svg width="70" height="60" viewBox="0 0 70 60" fill="none" xmlns="http://www.w3.org/2000/svg">
<g clip-path="url(#clip0_101_851)">
<path d="M48.9013 26.3359L39.42 16.8534C38.2466 15.6834 36.6571 15.0264 35 15.0264C33.3429 15.0264 31.7535 15.6834 30.58 16.8534L21.0988 26.3359C20.7493 26.6831 20.4722 27.0963 20.2836 27.5514C20.095 28.0065 19.9986 28.4945 20 28.9871V41.2584C20 42.253 20.3951 43.2068 21.0984 43.9101C21.8016 44.6133 22.7555 45.0084 23.75 45.0084H46.25C47.2446 45.0084 48.1984 44.6133 48.9017 43.9101C49.6049 43.2068 50 42.253 50 41.2584V28.9871C50.0014 28.4945 49.905 28.0065 49.7164 27.5514C49.5278 27.0963 49.2507 26.6831 48.9013 26.3359ZM38.75 42.5084H31.25V37.5909C31.25 36.5963 31.6451 35.6425 32.3484 34.9392C33.0516 34.236 34.0055 33.8409 35 33.8409C35.9946 33.8409 36.9484 34.236 37.6517 34.9392C38.3549 35.6425 38.75 36.5963 38.75 37.5909V42.5084ZM47.5 41.2584C47.5 41.5899 47.3683 41.9079 47.1339 42.1423C46.8995 42.3767 46.5815 42.5084 46.25 42.5084H41.25V37.5909C41.25 35.9333 40.5915 34.3436 39.4194 33.1715C38.2473 31.9994 36.6576 31.3409 35 31.3409C33.3424 31.3409 31.7527 31.9994 30.5806 33.1715C29.4085 34.3436 28.75 35.9333 28.75 37.5909V42.5084H23.75C23.4185 42.5084 23.1006 42.3767 22.8661 42.1423C22.6317 41.9079 22.5 41.5899 22.5 41.2584V28.9871C22.5012 28.6559 22.6328 28.3384 22.8663 28.1034L32.3475 18.6246C33.0521 17.9233 34.0058 17.5296 35 17.5296C35.9942 17.5296 36.9479 17.9233 37.6525 18.6246L47.1338 28.1072C47.3664 28.3412 47.4979 28.6572 47.5 28.9871V41.2584Z" fill="#32A1EB"/>
</g>
<defs>
<clipPath id="clip0_101_851">
<rect width="30" height="30" fill="white" transform="translate(20 15)"/>
</clipPath>
</defs>
</svg>
