<svg width="70" height="60" viewBox="0 0 70 60" fill="none" xmlns="http://www.w3.org/2000/svg">
<g clip-path="url(#clip0_704_1695)">
<path d="M28.75 22.5H48.75C49.0815 22.5 49.3995 22.3683 49.6339 22.1339C49.8683 21.8995 50 21.5815 50 21.25C50 20.9185 49.8683 20.6005 49.6339 20.3661C49.3995 20.1317 49.0815 20 48.75 20H28.75C28.4185 20 28.1005 20.1317 27.8661 20.3661C27.6317 20.6005 27.5 20.9185 27.5 21.25C27.5 21.5815 27.6317 21.8995 27.8661 22.1339C28.1005 22.3683 28.4185 22.5 28.75 22.5Z" fill="#32A1EB"/>
<path d="M48.75 28.75H28.75C28.4185 28.75 28.1005 28.8817 27.8661 29.1161C27.6317 29.3505 27.5 29.6685 27.5 30C27.5 30.3315 27.6317 30.6495 27.8661 30.8839C28.1005 31.1183 28.4185 31.25 28.75 31.25H48.75C49.0815 31.25 49.3995 31.1183 49.6339 30.8839C49.8683 30.6495 50 30.3315 50 30C50 29.6685 49.8683 29.3505 49.6339 29.1161C49.3995 28.8817 49.0815 28.75 48.75 28.75Z" fill="#32A1EB"/>
<path d="M48.75 37.5H28.75C28.4185 37.5 28.1005 37.6317 27.8661 37.8661C27.6317 38.1005 27.5 38.4185 27.5 38.75C27.5 39.0815 27.6317 39.3995 27.8661 39.6339C28.1005 39.8683 28.4185 40 28.75 40H48.75C49.0815 40 49.3995 39.8683 49.6339 39.6339C49.8683 39.3995 50 39.0815 50 38.75C50 38.4185 49.8683 38.1005 49.6339 37.8661C49.3995 37.6317 49.0815 37.5 48.75 37.5Z" fill="#32A1EB"/>
<path d="M22.5 23.75C23.8807 23.75 25 22.6307 25 21.25C25 19.8693 23.8807 18.75 22.5 18.75C21.1193 18.75 20 19.8693 20 21.25C20 22.6307 21.1193 23.75 22.5 23.75Z" fill="#32A1EB"/>
<path d="M22.5 32.5C23.8807 32.5 25 31.3807 25 30C25 28.6193 23.8807 27.5 22.5 27.5C21.1193 27.5 20 28.6193 20 30C20 31.3807 21.1193 32.5 22.5 32.5Z" fill="#32A1EB"/>
<path d="M22.5 41.25C23.8807 41.25 25 40.1307 25 38.75C25 37.3693 23.8807 36.25 22.5 36.25C21.1193 36.25 20 37.3693 20 38.75C20 40.1307 21.1193 41.25 22.5 41.25Z" fill="#32A1EB"/>
</g>
<defs>
<clipPath id="clip0_704_1695">
<rect width="30" height="30" fill="white" transform="translate(20 15)"/>
</clipPath>
</defs>
</svg>
