<svg width="125" height="125" viewBox="0 0 125 125" fill="none" xmlns="http://www.w3.org/2000/svg">
<path fill-rule="evenodd" clip-rule="evenodd" d="M100.502 12.6395C111.329 20.762 119.445 32.2737 123.256 45.5859L123.645 46.9458L106.356 39.3507L106.248 39.1515C101.953 31.319 95.5928 24.7648 87.8954 20.2166C80.4617 15.8236 71.7766 13.3006 62.4983 13.3006C53.2195 13.3006 44.5344 15.8236 37.1007 20.2172C29.4039 24.7654 23.0428 31.3196 18.7491 39.1521L18.6391 39.3512C12.8805 41.8911 7.11428 44.4152 1.35156 46.9458L1.74094 45.5859C5.55326 32.2725 13.6691 20.762 24.4956 12.6395C35.0705 4.70448 48.2333 0 62.4983 0C76.7634 0 89.9261 4.70506 100.502 12.6395Z" fill="#4C4D91"/>
<path fill-rule="evenodd" clip-rule="evenodd" d="M62.5 125C97.0175 125 125 97.1668 125 62.8321C125 59.7776 124.775 56.7758 124.346 53.8388L110.672 47.8311L68.3669 29.2459C66.5219 28.4354 64.5156 28.0215 62.5 28.0215C60.4111 28.0215 58.4258 28.4603 56.6308 29.2488L14.3279 47.8323L0.653623 53.8388C0.225246 56.7752 0 59.7776 0 62.8321C0 97.1668 27.9819 125 62.5 125ZM92.0958 83.8314C92.0958 93.1455 78.8453 100.695 62.5 100.695C46.1547 100.695 32.9041 93.1455 32.9041 83.8314V72.1826L56.6308 82.6053C58.4258 83.3932 60.4111 83.832 62.5 83.832C64.5156 83.832 66.5219 83.4187 68.3669 82.6076L92.0958 72.1832V83.8314ZM112.694 57.6066C112.873 59.3243 112.965 61.0675 112.965 62.8321C112.965 90.5553 90.3707 113.029 62.5 113.029C34.6287 113.029 12.0353 90.5553 12.0353 62.8321C12.0353 61.0675 12.1267 59.3243 12.3059 57.606L56.6308 77.0769C58.4258 77.8655 60.4111 78.3043 62.5 78.3043C64.5156 78.3043 66.5219 77.8909 68.3669 77.0798L91.1669 67.0636L64.7414 53.4804V53.4799C63.6251 53.0022 62.8428 51.8999 62.8428 50.6141C62.8428 48.8929 64.2461 47.4971 65.9765 47.4971C66.576 47.4971 67.1359 47.6644 67.6126 47.955L98.5104 63.8377L112.694 57.6066Z" fill="#4C4D91"/>
</svg>
