<svg width="70" height="60" viewBox="0 0 70 60" fill="none" xmlns="http://www.w3.org/2000/svg">
<g clip-path="url(#clip0_550_1744)">
<path d="M50.0001 43.75C50.0001 44.0815 49.8684 44.3994 49.6339 44.6338C49.3995 44.8683 49.0816 45 48.7501 45H21.2501C20.9185 45 20.6006 44.8683 20.3662 44.6338C20.1318 44.3994 20.0001 44.0815 20.0001 43.75C20.0001 43.4184 20.1318 43.1005 20.3662 42.8661C20.6006 42.6316 20.9185 42.5 21.2501 42.5H48.7501C49.0816 42.5 49.3995 42.6316 49.6339 42.8661C49.8684 43.1005 50.0001 43.4184 50.0001 43.75ZM20.3638 25.6899C20.0945 25.1904 19.9697 24.6256 20.0035 24.059C20.0372 23.4924 20.2283 22.9465 20.5551 22.4824C21.0891 21.6988 21.8044 21.0556 22.6401 20.6074L32.0163 15.7274C32.9379 15.2482 33.9613 14.998 35.0001 14.998C36.0388 14.998 37.0622 15.2482 37.9838 15.7274L47.3588 20.6112C48.1945 21.0594 48.9097 21.7026 49.4438 22.4862C49.7706 22.9502 49.9616 23.4962 49.9954 24.0628C50.0292 24.6293 49.9044 25.1941 49.6351 25.6937C49.3451 26.2422 48.9102 26.7007 48.3777 27.0192C47.8452 27.3377 47.2355 27.504 46.6151 27.4999H46.2501V37.4999H47.5001C47.8316 37.4999 48.1495 37.6316 48.3839 37.8661C48.6184 38.1005 48.7501 38.4184 48.7501 38.7499C48.7501 39.0815 48.6184 39.3994 48.3839 39.6338C48.1495 39.8683 47.8316 40 47.5001 40H22.5001C22.1685 40 21.8506 39.8683 21.6162 39.6338C21.3818 39.3994 21.2501 39.0815 21.2501 38.7499C21.2501 38.4184 21.3818 38.1005 21.6162 37.8661C21.8506 37.6316 22.1685 37.4999 22.5001 37.4999H23.7501V27.4999H23.3851C22.764 27.5038 22.1538 27.3371 21.621 27.0179C21.0883 26.6987 20.6534 26.2394 20.3638 25.6899ZM26.2501 37.4999H30.0001V27.4999H26.2501V37.4999ZM32.5001 27.4999V37.4999H37.5001V27.4999H32.5001ZM43.7501 27.4999H40.0001V37.4999H43.7501V27.4999ZM22.5788 24.5312C22.6572 24.6758 22.774 24.796 22.9162 24.8787C23.0584 24.9614 23.2206 25.0033 23.3851 24.9999H46.6151C46.7795 25.0033 46.9417 24.9614 47.084 24.8787C47.2262 24.796 47.3429 24.6758 47.4213 24.5312C47.4784 24.4357 47.5061 24.3254 47.5007 24.2142C47.4954 24.103 47.4573 23.9958 47.3913 23.9062C47.0884 23.4561 46.6815 23.0856 46.2051 22.8262L36.8301 17.9424C36.2651 17.6492 35.6379 17.4962 35.0013 17.4962C34.3648 17.4962 33.7376 17.6492 33.1726 17.9424L23.7976 22.8262C23.3213 23.0865 22.9145 23.4573 22.6113 23.9074C22.5452 23.9967 22.5068 24.1035 22.501 24.2144C22.4953 24.3254 22.5223 24.4355 22.5788 24.5312Z" fill="#32A1EB"/>
</g>
<defs>
<clipPath id="clip0_550_1744">
<rect width="30" height="30" fill="white" transform="translate(20 15)"/>
</clipPath>
</defs>
</svg>
