<svg width="70" height="60" viewBox="0 0 70 60" fill="none" xmlns="http://www.w3.org/2000/svg">
<g clip-path="url(#clip0_558_2444)">
<path d="M47.5719 21.5372L38.3544 17.146C36.3254 15.934 33.8 15.9125 31.7506 17.0897L22.4294 21.5372C22.3945 21.5547 22.3582 21.5735 22.3244 21.5935C20.1124 22.8583 19.3445 25.6768 20.6093 27.8888C21.038 28.6387 21.6687 29.2531 22.4294 29.6622L25.0007 30.8873V37.0122C25.0022 39.7511 26.7844 42.1708 29.3995 42.9848C31.2193 43.5112 33.1063 43.769 35.0007 43.7498C36.8948 43.771 38.7818 43.5154 40.602 42.991C43.2171 42.1771 44.9992 39.7574 45.0007 37.0185V30.8847L47.5008 29.6897V39.9997C47.5008 40.6901 48.0604 41.2497 48.7507 41.2497C49.4411 41.2497 50.0007 40.6901 50.0007 39.9997V24.9997C50.009 23.5319 48.8501 22.1759 47.5719 21.5372ZM42.5007 37.0185C42.5013 38.6567 41.4384 40.1058 39.8757 40.5972C38.2909 41.0501 36.6487 41.2698 35.0007 41.2497C33.3526 41.2698 31.7104 41.0501 30.1257 40.5972C28.5629 40.1058 27.5 38.6567 27.5007 37.0185V32.0785L31.6469 34.0536C32.67 34.6611 33.8384 34.9803 35.0282 34.9773C36.1607 34.9853 37.2742 34.6855 38.2495 34.1098L42.5007 32.0785V37.0185ZM46.5007 27.406L37.0732 31.906C35.7587 32.6714 34.1294 32.6497 32.8357 31.8497L23.6119 27.4622C22.5838 26.9078 22.1998 25.6249 22.7542 24.5968C22.9417 24.2491 23.2228 23.9609 23.5657 23.7647L32.9344 19.2897C34.2493 18.526 35.8778 18.5477 37.1719 19.346L46.3894 23.7372C47.0673 24.1137 47.4914 24.8245 47.5007 25.5998C47.5019 26.3342 47.1237 27.0171 46.5007 27.406Z" fill="#32A1EB"/>
</g>
<defs>
<clipPath id="clip0_558_2444">
<rect width="30" height="30" fill="white" transform="translate(20 15)"/>
</clipPath>
</defs>
</svg>
