<svg width="70" height="60" viewBox="0 0 70 60" fill="none" xmlns="http://www.w3.org/2000/svg">
<g clip-path="url(#clip0_558_1571)">
<path d="M43.75 17.5H42.5V16.25C42.5 15.9185 42.3683 15.6005 42.1339 15.3661C41.8995 15.1317 41.5815 15 41.25 15C40.9185 15 40.6005 15.1317 40.3661 15.3661C40.1317 15.6005 40 15.9185 40 16.25V17.5H30V16.25C30 15.9185 29.8683 15.6005 29.6339 15.3661C29.3995 15.1317 29.0815 15 28.75 15C28.4185 15 28.1005 15.1317 27.8661 15.3661C27.6317 15.6005 27.5 15.9185 27.5 16.25V17.5H26.25C24.593 17.502 23.0044 18.1611 21.8328 19.3328C20.6611 20.5044 20.002 22.093 20 23.75L20 38.75C20.002 40.407 20.6611 41.9956 21.8328 43.1672C23.0044 44.3389 24.593 44.998 26.25 45H43.75C45.407 44.998 46.9956 44.3389 48.1672 43.1672C49.3389 41.9956 49.998 40.407 50 38.75V23.75C49.998 22.093 49.3389 20.5044 48.1672 19.3328C46.9956 18.1611 45.407 17.502 43.75 17.5ZM22.5 23.75C22.5 22.7554 22.8951 21.8016 23.5983 21.0983C24.3016 20.3951 25.2554 20 26.25 20H43.75C44.7446 20 45.6984 20.3951 46.4017 21.0983C47.1049 21.8016 47.5 22.7554 47.5 23.75V25H22.5V23.75ZM43.75 42.5H26.25C25.2554 42.5 24.3016 42.1049 23.5983 41.4017C22.8951 40.6984 22.5 39.7446 22.5 38.75V27.5H47.5V38.75C47.5 39.7446 47.1049 40.6984 46.4017 41.4017C45.6984 42.1049 44.7446 42.5 43.75 42.5Z" fill="#32A1EB"/>
<path d="M35 35.625C36.0355 35.625 36.875 34.7855 36.875 33.75C36.875 32.7145 36.0355 31.875 35 31.875C33.9645 31.875 33.125 32.7145 33.125 33.75C33.125 34.7855 33.9645 35.625 35 35.625Z" fill="#32A1EB"/>
<path d="M28.75 35.625C29.7855 35.625 30.625 34.7855 30.625 33.75C30.625 32.7145 29.7855 31.875 28.75 31.875C27.7145 31.875 26.875 32.7145 26.875 33.75C26.875 34.7855 27.7145 35.625 28.75 35.625Z" fill="#32A1EB"/>
<path d="M41.25 35.625C42.2855 35.625 43.125 34.7855 43.125 33.75C43.125 32.7145 42.2855 31.875 41.25 31.875C40.2145 31.875 39.375 32.7145 39.375 33.75C39.375 34.7855 40.2145 35.625 41.25 35.625Z" fill="#32A1EB"/>
</g>
<defs>
<clipPath id="clip0_558_1571">
<rect width="30" height="30" fill="white" transform="translate(20 15)"/>
</clipPath>
</defs>
</svg>
